<svg width="257" height="17" viewBox="0 0 257 17" fill="none" xmlns="http://www.w3.org/2000/svg">
<path d="M-3.89218e-05 14.1V-2.52724e-05H6.11996C7.15996 -2.52724e-05 8.03996 0.173308 8.75996 0.519975C9.47996 0.866641 10.0266 1.36664 10.4 2.01997C10.7733 2.67331 10.96 3.46664 10.96 4.39998C10.96 5.31998 10.7733 6.11331 10.4 6.77998C10.0266 7.43331 9.47996 7.93998 8.75996 8.29998C8.03996 8.64664 7.15996 8.81998 6.11996 8.81998H2.55996V14.1H-3.89218e-05ZM2.55996 6.79998H5.71996C6.62663 6.79998 7.31329 6.59998 7.77996 6.19998C8.24663 5.78664 8.47996 5.18664 8.47996 4.39998C8.47996 3.61331 8.24663 3.01998 7.77996 2.61998C7.31329 2.21998 6.62663 2.01997 5.71996 2.01997H2.55996V6.79998ZM12.8068 14.1V-2.52724e-05H15.3068V6.27997H15.0268C15.3202 5.57331 15.7735 5.03998 16.3868 4.67998C17.0135 4.30664 17.7202 4.11998 18.5068 4.11998C19.2935 4.11998 19.9402 4.26664 20.4468 4.55998C20.9535 4.85331 21.3335 5.29998 21.5868 5.89998C21.8402 6.48664 21.9668 7.23331 21.9668 8.13998V14.1H19.4668V8.25998C19.4668 7.75331 19.4002 7.33998 19.2668 7.01998C19.1468 6.69998 18.9535 6.46664 18.6868 6.31998C18.4335 6.15998 18.1068 6.07998 17.7068 6.07998C17.2268 6.07998 16.8068 6.18664 16.4468 6.39998C16.0868 6.59998 15.8068 6.89331 15.6068 7.27998C15.4068 7.65331 15.3068 8.09331 15.3068 8.59998V14.1H12.8068ZM28.9661 14.3C27.9527 14.3 27.0727 14.0933 26.3261 13.68C25.5794 13.2666 24.9994 12.68 24.5861 11.92C24.1727 11.1466 23.9661 10.24 23.9661 9.19998C23.9661 8.15998 24.1727 7.25998 24.5861 6.49998C24.9994 5.73998 25.5794 5.15331 26.3261 4.73998C27.0727 4.32664 27.9527 4.11998 28.9661 4.11998C29.9794 4.11998 30.8594 4.32664 31.6061 4.73998C32.3527 5.15331 32.9327 5.73998 33.3461 6.49998C33.7594 7.25998 33.9661 8.15998 33.9661 9.19998C33.9661 10.24 33.7594 11.1466 33.3461 11.92C32.9327 12.68 32.3527 13.2666 31.6061 13.68C30.8594 14.0933 29.9794 14.3 28.9661 14.3ZM28.9661 12.4C29.7127 12.4 30.3127 12.1333 30.7661 11.6C31.2194 11.0533 31.4461 10.2533 31.4461 9.19998C31.4461 8.13331 31.2194 7.33998 30.7661 6.81998C30.3127 6.28664 29.7127 6.01998 28.9661 6.01998C28.2194 6.01998 27.6194 6.28664 27.1661 6.81998C26.7127 7.33998 26.4861 8.13331 26.4861 9.19998C26.4861 10.2533 26.7127 11.0533 27.1661 11.6C27.6194 12.1333 28.2194 12.4 28.9661 12.4ZM36.0295 14.1V4.31998H38.4695V6.27997H38.2495C38.5428 5.57331 38.9962 5.03998 39.6095 4.67998C40.2362 4.30664 40.9428 4.11998 41.7295 4.11998C42.5162 4.11998 43.1628 4.26664 43.6695 4.55998C44.1762 4.85331 44.5562 5.29998 44.8095 5.89998C45.0628 6.48664 45.1895 7.23331 45.1895 8.13998V14.1H42.6895V8.25998C42.6895 7.75331 42.6228 7.33998 42.4895 7.01998C42.3695 6.69998 42.1762 6.46664 41.9095 6.31998C41.6562 6.15998 41.3295 6.07998 40.9295 6.07998C40.4495 6.07998 40.0295 6.18664 39.6695 6.39998C39.3095 6.59998 39.0295 6.89331 38.8295 7.27998C38.6295 7.65331 38.5295 8.09331 38.5295 8.59998V14.1H36.0295ZM52.5487 14.3C51.442 14.3 50.4887 14.0933 49.6887 13.68C48.8887 13.2666 48.2687 12.68 47.8287 11.92C47.402 11.16 47.1887 10.26 47.1887 9.21998C47.1887 8.20664 47.3954 7.31998 47.8087 6.55998C48.2354 5.79998 48.8154 5.20664 49.5487 4.77998C50.2954 4.33998 51.142 4.11998 52.0887 4.11998C53.022 4.11998 53.822 4.31998 54.4887 4.71998C55.1554 5.11998 55.6687 5.68664 56.0287 6.41998C56.402 7.15331 56.5887 8.02664 56.5887 9.03998V9.77998H49.2087V8.33998H54.8287L54.5087 8.63998C54.5087 7.73331 54.3087 7.03998 53.9087 6.55998C53.5087 6.06664 52.9354 5.81997 52.1887 5.81997C51.6287 5.81997 51.1487 5.95331 50.7487 6.21998C50.362 6.47331 50.062 6.83998 49.8487 7.31998C49.6487 7.78664 49.5487 8.34664 49.5487 8.99998V9.13998C49.5487 9.87331 49.662 10.48 49.8887 10.96C50.1154 11.44 50.4554 11.8 50.9087 12.04C51.362 12.28 51.922 12.4 52.5887 12.4C53.1354 12.4 53.682 12.32 54.2287 12.16C54.7754 11.9866 55.2754 11.72 55.7287 11.36L56.4287 13.04C55.962 13.4266 55.3754 13.7333 54.6687 13.96C53.962 14.1866 53.2554 14.3 52.5487 14.3ZM64.1992 14.1V-2.52724e-05H66.1192L74.2192 10.52H73.6992V-2.52724e-05H76.0792V14.1H74.1792L66.0792 3.55998H66.5792V14.1H64.1992ZM82.4601 14.3C81.6468 14.3 80.9735 14.1533 80.4401 13.86C79.9068 13.5533 79.5068 13.1 79.2401 12.5C78.9868 11.9 78.8601 11.1533 78.8601 10.26V4.31998H81.3601V10.3C81.3601 10.7533 81.4201 11.1333 81.5401 11.44C81.6735 11.7466 81.8668 11.9733 82.1201 12.12C82.3868 12.2666 82.7201 12.34 83.1201 12.34C83.5735 12.34 83.9668 12.24 84.3001 12.04C84.6468 11.8266 84.9135 11.5333 85.1001 11.16C85.3001 10.7733 85.4001 10.3266 85.4001 9.81998V4.31998H87.9001V14.1H85.4601V12.06H85.7401C85.4601 12.78 85.0335 13.3333 84.4601 13.72C83.9001 14.1066 83.2335 14.3 82.4601 14.3ZM90.5421 14.1V4.31998H92.9821V6.27997H92.7621C92.9355 5.82664 93.1755 5.43998 93.4821 5.11997C93.7888 4.79998 94.1555 4.55331 94.5821 4.37997C95.0088 4.20664 95.4821 4.11998 96.0021 4.11998C96.7888 4.11998 97.4355 4.30664 97.9421 4.67998C98.4488 5.05331 98.8021 5.62664 99.0021 6.39998H98.7221C98.9888 5.69331 99.4288 5.13998 100.042 4.73998C100.655 4.32664 101.362 4.11998 102.162 4.11998C102.909 4.11998 103.522 4.26664 104.002 4.55998C104.495 4.85331 104.862 5.29998 105.102 5.89998C105.342 6.48664 105.462 7.23331 105.462 8.13998V14.1H102.962V8.23998C102.962 7.49331 102.835 6.94664 102.582 6.59997C102.342 6.25331 101.929 6.07998 101.342 6.07998C100.915 6.07998 100.542 6.18664 100.222 6.39998C99.9021 6.59998 99.6555 6.89331 99.4821 7.27998C99.3221 7.66664 99.2421 8.13331 99.2421 8.67998V14.1H96.7421V8.23998C96.7421 7.49331 96.6155 6.94664 96.3621 6.59997C96.1221 6.25331 95.7155 6.07998 95.1421 6.07998C94.7021 6.07998 94.3221 6.18664 94.0021 6.39998C93.6955 6.59998 93.4555 6.89331 93.2821 7.27998C93.1221 7.66664 93.0421 8.13331 93.0421 8.67998V14.1H90.5421ZM113.681 14.3C112.855 14.3 112.128 14.0933 111.501 13.68C110.888 13.2666 110.481 12.7133 110.281 12.02H110.481V14.1H108.041V-2.52724e-05H110.541V6.29998H110.301C110.515 5.64664 110.928 5.11998 111.541 4.71998C112.155 4.31998 112.868 4.11998 113.681 4.11998C114.548 4.11998 115.301 4.32664 115.941 4.73998C116.581 5.15331 117.081 5.73998 117.441 6.49998C117.801 7.24664 117.981 8.14664 117.981 9.19998C117.981 10.24 117.801 11.1466 117.441 11.92C117.081 12.68 116.575 13.2666 115.921 13.68C115.281 14.0933 114.535 14.3 113.681 14.3ZM112.981 12.4C113.728 12.4 114.328 12.1333 114.781 11.6C115.235 11.0533 115.461 10.2533 115.461 9.19998C115.461 8.13331 115.235 7.33998 114.781 6.81998C114.328 6.28664 113.728 6.01998 112.981 6.01998C112.235 6.01998 111.635 6.28664 111.181 6.81998C110.728 7.33998 110.501 8.13331 110.501 9.19998C110.501 10.2533 110.728 11.0533 111.181 11.6C111.635 12.1333 112.235 12.4 112.981 12.4ZM124.853 14.3C123.747 14.3 122.793 14.0933 121.993 13.68C121.193 13.2666 120.573 12.68 120.133 11.92C119.707 11.16 119.493 10.26 119.493 9.21998C119.493 8.20664 119.7 7.31998 120.113 6.55998C120.54 5.79998 121.12 5.20664 121.853 4.77998C122.6 4.33998 123.447 4.11998 124.393 4.11998C125.327 4.11998 126.127 4.31998 126.793 4.71998C127.46 5.11998 127.973 5.68664 128.333 6.41998C128.707 7.15331 128.893 8.02664 128.893 9.03998V9.77998H121.513V8.33998H127.133L126.813 8.63998C126.813 7.73331 126.613 7.03998 126.213 6.55998C125.813 6.06664 125.24 5.81997 124.493 5.81997C123.933 5.81997 123.453 5.95331 123.053 6.21998C122.667 6.47331 122.367 6.83998 122.153 7.31998C121.953 7.78664 121.853 8.34664 121.853 8.99998V9.13998C121.853 9.87331 121.967 10.48 122.193 10.96C122.42 11.44 122.76 11.8 123.213 12.04C123.667 12.28 124.227 12.4 124.893 12.4C125.44 12.4 125.987 12.32 126.533 12.16C127.08 11.9866 127.58 11.72 128.033 11.36L128.733 13.04C128.267 13.4266 127.68 13.7333 126.973 13.96C126.267 14.1866 125.56 14.3 124.853 14.3ZM130.873 14.1V4.31998H133.313V6.67998H133.113C133.3 5.87998 133.667 5.27331 134.213 4.85998C134.76 4.43331 135.487 4.18664 136.393 4.11998L137.153 4.05997L137.313 6.17998L135.873 6.31998C135.06 6.39998 134.447 6.65331 134.033 7.07998C133.62 7.49331 133.413 8.07998 133.413 8.83998V14.1H130.873ZM144.854 16.774C144.649 16.074 144.49 15.3693 144.378 14.66C144.266 13.9506 144.21 13.2506 144.21 12.56C144.21 11.4773 144.317 10.4226 144.532 9.39598C144.756 8.36931 145.069 7.40331 145.47 6.49797C145.871 5.58331 146.333 4.77131 146.856 4.06198L147.486 4.36997C147.01 5.18197 146.59 6.02664 146.226 6.90398C145.871 7.78131 145.596 8.70064 145.4 9.66198C145.204 10.6233 145.106 11.636 145.106 12.7C145.106 13.1106 145.12 13.526 145.148 13.946C145.185 14.3566 145.232 14.7766 145.288 15.206C145.353 15.6446 145.433 16.088 145.526 16.536L144.854 16.774ZM147.554 14.1L148.632 7.30998H149.472L149.22 8.91998H149.066C149.299 8.37864 149.644 7.95398 150.102 7.64598C150.568 7.33798 151.124 7.18398 151.768 7.18398C152.272 7.18398 152.692 7.28664 153.028 7.49198C153.373 7.69731 153.616 8.00531 153.756 8.41598C153.905 8.82664 153.928 9.34464 153.826 9.96998L153.168 14.1H152.314L152.972 9.96998C153.046 9.51264 153.042 9.13464 152.958 8.83598C152.883 8.52798 152.734 8.29931 152.51 8.14998C152.286 8.00064 151.982 7.92598 151.6 7.92598C151.105 7.92598 150.676 8.02864 150.312 8.23398C149.948 8.43931 149.658 8.72864 149.444 9.10198C149.229 9.46598 149.08 9.89998 148.996 10.404L148.408 14.1H147.554ZM158.3 14.212C157.721 14.212 157.217 14.0953 156.788 13.862C156.368 13.6286 156.041 13.2926 155.808 12.854C155.584 12.406 155.472 11.874 155.472 11.258C155.472 10.7073 155.546 10.1846 155.696 9.68998C155.854 9.19531 156.083 8.76131 156.382 8.38798C156.69 8.01464 157.058 7.72064 157.488 7.50598C157.917 7.29131 158.407 7.18398 158.958 7.18398C159.536 7.18398 160.036 7.30531 160.456 7.54798C160.885 7.78131 161.212 8.12198 161.436 8.56998C161.669 9.00864 161.786 9.53131 161.786 10.138C161.786 10.698 161.706 11.2253 161.548 11.72C161.389 12.2053 161.156 12.6393 160.848 13.022C160.549 13.3953 160.185 13.6893 159.756 13.904C159.336 14.1093 158.85 14.212 158.3 14.212ZM158.328 13.498C158.888 13.498 159.359 13.344 159.742 13.036C160.124 12.728 160.414 12.3173 160.61 11.804C160.815 11.2906 160.918 10.726 160.918 10.11C160.918 9.38198 160.74 8.83598 160.386 8.47198C160.031 8.09864 159.541 7.91198 158.916 7.91198C158.365 7.91198 157.894 8.06598 157.502 8.37398C157.119 8.68198 156.83 9.09264 156.634 9.60598C156.438 10.11 156.34 10.6746 156.34 11.3C156.34 12.0186 156.512 12.5646 156.858 12.938C157.212 13.3113 157.702 13.498 158.328 13.498ZM169.512 14.212C168.868 14.212 168.331 14.0906 167.902 13.848C167.482 13.596 167.169 13.246 166.964 12.798C166.758 12.3406 166.656 11.818 166.656 11.23C166.656 10.7353 166.721 10.25 166.852 9.77398C166.992 9.28864 167.202 8.85464 167.482 8.47198C167.771 8.07998 168.14 7.76731 168.588 7.53398C169.036 7.30064 169.568 7.18398 170.184 7.18398C170.632 7.18398 171.056 7.26331 171.458 7.42198C171.859 7.58064 172.181 7.79064 172.424 8.05198L172.074 8.68198C171.822 8.42998 171.542 8.24331 171.234 8.12198C170.926 7.99131 170.576 7.92598 170.184 7.92598C169.708 7.92598 169.302 8.01931 168.966 8.20598C168.63 8.39264 168.354 8.64931 168.14 8.97598C167.934 9.29331 167.78 9.64798 167.678 10.04C167.575 10.432 167.524 10.8286 167.524 11.23C167.524 11.9113 167.682 12.4573 168 12.868C168.326 13.2786 168.858 13.484 169.596 13.484C169.894 13.484 170.202 13.4233 170.52 13.302C170.846 13.1806 171.15 12.994 171.43 12.742L171.738 13.4C171.56 13.568 171.346 13.7126 171.094 13.834C170.851 13.9553 170.59 14.0486 170.31 14.114C170.039 14.1793 169.773 14.212 169.512 14.212ZM175.155 14.212C174.772 14.212 174.413 14.128 174.077 13.96C173.741 13.792 173.466 13.5586 173.251 13.26C173.046 12.952 172.943 12.5973 172.943 12.196C172.943 11.72 173.078 11.3373 173.349 11.048C173.62 10.7493 174.04 10.5346 174.609 10.404C175.178 10.2733 175.906 10.208 176.793 10.208H177.927L177.829 10.838H176.989C176.196 10.838 175.57 10.88 175.113 10.964C174.656 11.0386 174.329 11.174 174.133 11.37C173.946 11.566 173.853 11.8273 173.853 12.154C173.853 12.602 174.002 12.9426 174.301 13.176C174.6 13.4093 174.936 13.526 175.309 13.526C175.673 13.526 176.014 13.4466 176.331 13.288C176.648 13.12 176.919 12.882 177.143 12.574C177.367 12.2566 177.516 11.874 177.591 11.426L177.857 9.71798C177.96 9.12064 177.89 8.67264 177.647 8.37398C177.404 8.06598 176.975 7.91198 176.359 7.91198C175.93 7.91198 175.528 7.97264 175.155 8.09398C174.782 8.20598 174.413 8.38798 174.049 8.63998L173.769 7.98198C173.993 7.82331 174.25 7.68331 174.539 7.56198C174.828 7.44064 175.132 7.34731 175.449 7.28198C175.776 7.21664 176.102 7.18398 176.429 7.18398C177.017 7.18398 177.488 7.29598 177.843 7.51998C178.207 7.74398 178.454 8.06598 178.585 8.48598C178.725 8.89664 178.748 9.38664 178.655 9.95598L177.997 14.1H177.185L177.423 12.518H177.563C177.442 12.9006 177.255 13.218 177.003 13.47C176.751 13.722 176.462 13.9086 176.135 14.03C175.818 14.1513 175.491 14.212 175.155 14.212ZM182.736 14.212C182.204 14.212 181.709 14.1373 181.252 13.988C180.794 13.8386 180.421 13.6333 180.132 13.372L180.51 12.756C180.734 12.9333 180.962 13.078 181.196 13.19C181.438 13.302 181.69 13.386 181.952 13.442C182.213 13.4886 182.488 13.512 182.778 13.512C183.31 13.512 183.73 13.4046 184.038 13.19C184.346 12.9753 184.5 12.6673 184.5 12.266C184.5 12.0046 184.416 11.79 184.248 11.622C184.08 11.454 183.837 11.328 183.52 11.244L182.19 10.908C181.742 10.796 181.387 10.5953 181.126 10.306C180.874 10.0073 180.748 9.65264 180.748 9.24198C180.748 8.84064 180.855 8.48598 181.07 8.17798C181.294 7.86998 181.606 7.62731 182.008 7.44998C182.409 7.27264 182.871 7.18398 183.394 7.18398C183.711 7.18398 184.014 7.22131 184.304 7.29598C184.602 7.37064 184.873 7.47798 185.116 7.61798C185.368 7.74864 185.573 7.90264 185.732 8.07998L185.382 8.68198C185.12 8.41131 184.822 8.21531 184.486 8.09398C184.15 7.96331 183.776 7.89798 183.366 7.89798C182.824 7.89798 182.39 8.01464 182.064 8.24798C181.737 8.48131 181.574 8.80331 181.574 9.21398C181.574 9.45664 181.648 9.66664 181.798 9.84398C181.956 10.0213 182.19 10.152 182.498 10.236L183.842 10.586C184.308 10.7073 184.672 10.9033 184.934 11.174C185.204 11.4353 185.34 11.776 185.34 12.196C185.34 12.616 185.228 12.98 185.004 13.288C184.789 13.5866 184.486 13.8153 184.094 13.974C183.711 14.1326 183.258 14.212 182.736 14.212ZM190.037 14.212C189.412 14.212 188.87 14.0953 188.413 13.862C187.956 13.6193 187.606 13.2786 187.363 12.84C187.12 12.4013 186.999 11.874 186.999 11.258C186.999 10.53 187.139 9.85798 187.419 9.24198C187.699 8.62598 188.105 8.13131 188.637 7.75798C189.178 7.37531 189.818 7.18398 190.555 7.18398C191.255 7.18398 191.806 7.35198 192.207 7.68798C192.608 8.01464 192.879 8.43931 193.019 8.96198C193.168 9.47531 193.196 10.0213 193.103 10.6L193.061 10.88H187.629L187.727 10.25H192.641L192.375 10.432C192.45 9.95598 192.436 9.52664 192.333 9.14398C192.23 8.76131 192.034 8.45331 191.745 8.21998C191.465 7.98664 191.064 7.86998 190.541 7.86998C190 7.86998 189.547 7.99598 189.183 8.24798C188.819 8.49064 188.534 8.80331 188.329 9.18598C188.133 9.56864 187.998 9.96064 187.923 10.362L187.881 10.656C187.788 11.2253 187.811 11.7246 187.951 12.154C188.1 12.574 188.352 12.9053 188.707 13.148C189.071 13.3813 189.519 13.498 190.051 13.498C190.49 13.498 190.896 13.4326 191.269 13.302C191.642 13.1713 191.983 12.9613 192.291 12.672L192.641 13.274C192.333 13.582 191.941 13.8153 191.465 13.974C190.998 14.1326 190.522 14.212 190.037 14.212ZM194.91 10.74L195.022 10.012H198.83L198.718 10.74H194.91ZM202.847 14.212C202.315 14.212 201.82 14.1373 201.363 13.988C200.906 13.8386 200.532 13.6333 200.243 13.372L200.621 12.756C200.845 12.9333 201.074 13.078 201.307 13.19C201.55 13.302 201.802 13.386 202.063 13.442C202.324 13.4886 202.6 13.512 202.889 13.512C203.421 13.512 203.841 13.4046 204.149 13.19C204.457 12.9753 204.611 12.6673 204.611 12.266C204.611 12.0046 204.527 11.79 204.359 11.622C204.191 11.454 203.948 11.328 203.631 11.244L202.301 10.908C201.853 10.796 201.498 10.5953 201.237 10.306C200.985 10.0073 200.859 9.65264 200.859 9.24198C200.859 8.84064 200.966 8.48598 201.181 8.17798C201.405 7.86998 201.718 7.62731 202.119 7.44998C202.52 7.27264 202.982 7.18398 203.505 7.18398C203.822 7.18398 204.126 7.22131 204.415 7.29598C204.714 7.37064 204.984 7.47798 205.227 7.61798C205.479 7.74864 205.684 7.90264 205.843 8.07998L205.493 8.68198C205.232 8.41131 204.933 8.21531 204.597 8.09398C204.261 7.96331 203.888 7.89798 203.477 7.89798C202.936 7.89798 202.502 8.01464 202.175 8.24798C201.848 8.48131 201.685 8.80331 201.685 9.21398C201.685 9.45664 201.76 9.66664 201.909 9.84398C202.068 10.0213 202.301 10.152 202.609 10.236L203.953 10.586C204.42 10.7073 204.784 10.9033 205.045 11.174C205.316 11.4353 205.451 11.776 205.451 12.196C205.451 12.616 205.339 12.98 205.115 13.288C204.9 13.5866 204.597 13.8153 204.205 13.974C203.822 14.1326 203.37 14.212 202.847 14.212ZM210.148 14.212C209.523 14.212 208.982 14.0953 208.524 13.862C208.067 13.6193 207.717 13.2786 207.474 12.84C207.232 12.4013 207.11 11.874 207.11 11.258C207.11 10.53 207.25 9.85798 207.53 9.24198C207.81 8.62598 208.216 8.13131 208.748 7.75798C209.29 7.37531 209.929 7.18398 210.666 7.18398C211.366 7.18398 211.917 7.35198 212.318 7.68798C212.72 8.01464 212.99 8.43931 213.13 8.96198C213.28 9.47531 213.308 10.0213 213.214 10.6L213.172 10.88H207.74L207.838 10.25H212.752L212.486 10.432C212.561 9.95598 212.547 9.52664 212.444 9.14398C212.342 8.76131 212.146 8.45331 211.856 8.21998C211.576 7.98664 211.175 7.86998 210.652 7.86998C210.111 7.86998 209.658 7.99598 209.294 8.24798C208.93 8.49064 208.646 8.80331 208.44 9.18598C208.244 9.56864 208.109 9.96064 208.034 10.362L207.992 10.656C207.899 11.2253 207.922 11.7246 208.062 12.154C208.212 12.574 208.464 12.9053 208.818 13.148C209.182 13.3813 209.63 13.498 210.162 13.498C210.601 13.498 211.007 13.4326 211.38 13.302C211.754 13.1713 212.094 12.9613 212.402 12.672L212.752 13.274C212.444 13.582 212.052 13.8153 211.576 13.974C211.11 14.1326 210.634 14.212 210.148 14.212ZM214.423 14.1L215.501 7.30998H216.341L216.089 8.91998H215.935C216.168 8.37864 216.514 7.95398 216.971 7.64598C217.438 7.33798 217.993 7.18398 218.637 7.18398C219.141 7.18398 219.561 7.28664 219.897 7.49198C220.242 7.69731 220.485 8.00531 220.625 8.41598C220.774 8.82664 220.798 9.34464 220.695 9.96998L220.037 14.1H219.183L219.841 9.96998C219.916 9.51264 219.911 9.13464 219.827 8.83598C219.752 8.52798 219.603 8.29931 219.379 8.14998C219.155 8.00064 218.852 7.92598 218.469 7.92598C217.974 7.92598 217.545 8.02864 217.181 8.23398C216.817 8.43931 216.528 8.72864 216.313 9.10198C216.098 9.46598 215.949 9.89998 215.865 10.404L215.277 14.1H214.423ZM224.763 14.212C224.231 14.212 223.736 14.1373 223.279 13.988C222.822 13.8386 222.448 13.6333 222.159 13.372L222.537 12.756C222.761 12.9333 222.99 13.078 223.223 13.19C223.466 13.302 223.718 13.386 223.979 13.442C224.24 13.4886 224.516 13.512 224.805 13.512C225.337 13.512 225.757 13.4046 226.065 13.19C226.373 12.9753 226.527 12.6673 226.527 12.266C226.527 12.0046 226.443 11.79 226.275 11.622C226.107 11.454 225.864 11.328 225.547 11.244L224.217 10.908C223.769 10.796 223.414 10.5953 223.153 10.306C222.901 10.0073 222.775 9.65264 222.775 9.24198C222.775 8.84064 222.882 8.48598 223.097 8.17798C223.321 7.86998 223.634 7.62731 224.035 7.44998C224.436 7.27264 224.898 7.18398 225.421 7.18398C225.738 7.18398 226.042 7.22131 226.331 7.29598C226.63 7.37064 226.9 7.47798 227.143 7.61798C227.395 7.74864 227.6 7.90264 227.759 8.07998L227.409 8.68198C227.148 8.41131 226.849 8.21531 226.513 8.09398C226.177 7.96331 225.804 7.89798 225.393 7.89798C224.852 7.89798 224.418 8.01464 224.091 8.24798C223.764 8.48131 223.601 8.80331 223.601 9.21398C223.601 9.45664 223.676 9.66664 223.825 9.84398C223.984 10.0213 224.217 10.152 224.525 10.236L225.869 10.586C226.336 10.7073 226.7 10.9033 226.961 11.174C227.232 11.4353 227.367 11.776 227.367 12.196C227.367 12.616 227.255 12.98 227.031 13.288C226.816 13.5866 226.513 13.8153 226.121 13.974C225.738 14.1326 225.286 14.212 224.763 14.212ZM230.16 5.51798L230.342 4.43997H231.476L231.308 5.51798H230.16ZM228.928 14.1L230.02 7.30998H230.874L229.782 14.1H228.928ZM234.664 14.212C234.169 14.212 233.759 14.1186 233.432 13.932C233.115 13.736 232.891 13.4653 232.76 13.12C232.639 12.7653 232.615 12.3453 232.69 11.86L233.306 7.99598H231.962L232.074 7.30998H233.404L233.74 5.20997H234.594L234.258 7.30998H236.456L236.344 7.99598H234.146L233.558 11.748C233.465 12.3546 233.521 12.7933 233.726 13.064C233.941 13.3346 234.295 13.47 234.79 13.47C234.958 13.47 235.112 13.4513 235.252 13.414C235.392 13.3766 235.518 13.3393 235.63 13.302L235.742 13.988C235.639 14.044 235.481 14.0953 235.266 14.142C235.061 14.1886 234.86 14.212 234.664 14.212ZM237.953 5.51798L238.135 4.43997H239.269L239.101 5.51798H237.953ZM236.721 14.1L237.813 7.30998H238.667L237.575 14.1H236.721ZM241.841 14.1L240.021 7.30998H240.917L242.499 13.582H242.135L245.747 7.30998H246.685L242.709 14.1H241.841ZM250.002 14.212C249.377 14.212 248.835 14.0953 248.378 13.862C247.921 13.6193 247.571 13.2786 247.328 12.84C247.085 12.4013 246.964 11.874 246.964 11.258C246.964 10.53 247.104 9.85798 247.384 9.24198C247.664 8.62598 248.07 8.13131 248.602 7.75798C249.143 7.37531 249.783 7.18398 250.52 7.18398C251.22 7.18398 251.771 7.35198 252.172 7.68798C252.573 8.01464 252.844 8.43931 252.984 8.96198C253.133 9.47531 253.161 10.0213 253.068 10.6L253.026 10.88H247.594L247.692 10.25H252.606L252.34 10.432C252.415 9.95598 252.401 9.52664 252.298 9.14398C252.195 8.76131 251.999 8.45331 251.71 8.21998C251.43 7.98664 251.029 7.86998 250.506 7.86998C249.965 7.86998 249.512 7.99598 249.148 8.24798C248.784 8.49064 248.499 8.80331 248.294 9.18598C248.098 9.56864 247.963 9.96064 247.888 10.362L247.846 10.656C247.753 11.2253 247.776 11.7246 247.916 12.154C248.065 12.574 248.317 12.9053 248.672 13.148C249.036 13.3813 249.484 13.498 250.016 13.498C250.455 13.498 250.861 13.4326 251.234 13.302C251.607 13.1713 251.948 12.9613 252.256 12.672L252.606 13.274C252.298 13.582 251.906 13.8153 251.43 13.974C250.963 14.1326 250.487 14.212 250.002 14.212ZM253.748 16.774L253.118 16.466C253.612 15.654 254.037 14.8093 254.392 13.932C254.746 13.0546 255.017 12.1353 255.204 11.174C255.4 10.2033 255.498 9.19064 255.498 8.13598C255.498 7.72531 255.484 7.31464 255.456 6.90398C255.428 6.48398 255.381 6.05464 255.316 5.61598C255.25 5.17731 255.176 4.73864 255.092 4.29997L255.75 4.06198C255.964 4.76198 256.128 5.46664 256.24 6.17597C256.352 6.88531 256.408 7.58531 256.408 8.27598C256.408 9.35864 256.296 10.4133 256.072 11.44C255.848 12.4666 255.535 13.4326 255.134 14.338C254.742 15.2433 254.28 16.0553 253.748 16.774Z" fill="#E8DFD4"/>
</svg>
