<svg width="211" height="19" viewBox="0 0 211 19" fill="none" xmlns="http://www.w3.org/2000/svg">
<path d="M-3.89218e-05 14.3V0.200048H9.21996V2.24005H2.55996V6.22005H8.79996V8.26005H2.55996V14.3H-3.89218e-05ZM15.0989 14.5C14.0855 14.5 13.2055 14.2934 12.4589 13.88C11.7122 13.4667 11.1322 12.88 10.7189 12.12C10.3055 11.3467 10.0989 10.44 10.0989 9.40005C10.0989 8.36005 10.3055 7.46005 10.7189 6.70005C11.1322 5.94005 11.7122 5.35338 12.4589 4.94005C13.2055 4.52672 14.0855 4.32005 15.0989 4.32005C16.1122 4.32005 16.9922 4.52672 17.7389 4.94005C18.4855 5.35338 19.0655 5.94005 19.4789 6.70005C19.8922 7.46005 20.0989 8.36005 20.0989 9.40005C20.0989 10.44 19.8922 11.3467 19.4789 12.12C19.0655 12.88 18.4855 13.4667 17.7389 13.88C16.9922 14.2934 16.1122 14.5 15.0989 14.5ZM15.0989 12.6C15.8455 12.6 16.4455 12.3334 16.8989 11.8C17.3522 11.2534 17.5789 10.4534 17.5789 9.40005C17.5789 8.33338 17.3522 7.54005 16.8989 7.02005C16.4455 6.48672 15.8455 6.22005 15.0989 6.22005C14.3522 6.22005 13.7522 6.48672 13.2989 7.02005C12.8455 7.54005 12.6189 8.33338 12.6189 9.40005C12.6189 10.4534 12.8455 11.2534 13.2989 11.8C13.7522 12.3334 14.3522 12.6 15.0989 12.6ZM22.1623 14.3V4.52005H24.6023V6.88005H24.4023C24.589 6.08005 24.9556 5.47338 25.5023 5.06005C26.049 4.63338 26.7756 4.38672 27.6823 4.32005L28.4423 4.26005L28.6023 6.38005L27.1623 6.52005C26.349 6.60005 25.7356 6.85338 25.3223 7.28005C24.909 7.69338 24.7023 8.28005 24.7023 9.04005V14.3H22.1623ZM34.3981 18.1C33.4914 18.1 32.6381 17.9934 31.8381 17.78C31.0514 17.58 30.3581 17.2667 29.7581 16.84L30.4781 15.1C30.8514 15.34 31.2448 15.54 31.6581 15.7C32.0714 15.8734 32.4914 16 32.9181 16.08C33.3448 16.16 33.7714 16.2 34.1981 16.2C35.0914 16.2 35.7581 15.98 36.1981 15.54C36.6514 15.1134 36.8781 14.4734 36.8781 13.62V11.82H37.0581C36.8581 12.5 36.4381 13.0467 35.7981 13.46C35.1714 13.86 34.4581 14.06 33.6581 14.06C32.7781 14.06 32.0114 13.86 31.3581 13.46C30.7048 13.0467 30.1981 12.4734 29.8381 11.74C29.4781 11.0067 29.2981 10.1534 29.2981 9.18005C29.2981 8.20672 29.4781 7.36005 29.8381 6.64005C30.1981 5.90672 30.7048 5.34005 31.3581 4.94005C32.0114 4.52672 32.7781 4.32005 33.6581 4.32005C34.4848 4.32005 35.2048 4.52672 35.8181 4.94005C36.4448 5.34005 36.8514 5.87338 37.0381 6.54005H36.8781V4.52005H39.3181V13.32C39.3181 14.3734 39.1314 15.2534 38.7581 15.96C38.3848 16.68 37.8314 17.2134 37.0981 17.56C36.3648 17.92 35.4648 18.1 34.3981 18.1ZM34.3381 12.16C35.1114 12.16 35.7248 11.8934 36.1781 11.36C36.6314 10.8267 36.8581 10.1 36.8581 9.18005C36.8581 8.26005 36.6314 7.54005 36.1781 7.02005C35.7248 6.48672 35.1114 6.22005 34.3381 6.22005C33.5648 6.22005 32.9514 6.48672 32.4981 7.02005C32.0448 7.54005 31.8181 8.26005 31.8181 9.18005C31.8181 10.1 32.0448 10.8267 32.4981 11.36C32.9514 11.8934 33.5648 12.16 34.3381 12.16ZM46.3684 14.5C45.3551 14.5 44.4751 14.2934 43.7284 13.88C42.9817 13.4667 42.4017 12.88 41.9884 12.12C41.5751 11.3467 41.3684 10.44 41.3684 9.40005C41.3684 8.36005 41.5751 7.46005 41.9884 6.70005C42.4017 5.94005 42.9817 5.35338 43.7284 4.94005C44.4751 4.52672 45.3551 4.32005 46.3684 4.32005C47.3817 4.32005 48.2617 4.52672 49.0084 4.94005C49.7551 5.35338 50.3351 5.94005 50.7484 6.70005C51.1617 7.46005 51.3684 8.36005 51.3684 9.40005C51.3684 10.44 51.1617 11.3467 50.7484 12.12C50.3351 12.88 49.7551 13.4667 49.0084 13.88C48.2617 14.2934 47.3817 14.5 46.3684 14.5ZM46.3684 12.6C47.1151 12.6 47.7151 12.3334 48.1684 11.8C48.6217 11.2534 48.8484 10.4534 48.8484 9.40005C48.8484 8.33338 48.6217 7.54005 48.1684 7.02005C47.7151 6.48672 47.1151 6.22005 46.3684 6.22005C45.6217 6.22005 45.0217 6.48672 44.5684 7.02005C44.1151 7.54005 43.8884 8.33338 43.8884 9.40005C43.8884 10.4534 44.1151 11.2534 44.5684 11.8C45.0217 12.3334 45.6217 12.6 46.3684 12.6ZM57.8142 14.5C56.5075 14.5 55.5342 14.1734 54.8942 13.52C54.2542 12.8667 53.9342 11.9134 53.9342 10.66V6.40005H52.0542V4.52005H53.9342V1.60005H56.4342V4.52005H59.3942V6.40005H56.4342V10.52C56.4342 11.16 56.5742 11.64 56.8542 11.96C57.1342 12.28 57.5875 12.44 58.2142 12.44C58.4008 12.44 58.5942 12.42 58.7942 12.38C58.9942 12.3267 59.2008 12.2734 59.4142 12.22L59.7942 14.06C59.5542 14.1934 59.2475 14.3 58.8742 14.38C58.5142 14.46 58.1608 14.5 57.8142 14.5ZM67.2806 17.9L69.3206 13.4V14.44L65.0206 4.52005H67.6806L70.7206 12.1H70.1206L73.2206 4.52005H75.7406L69.8606 17.9H67.2806ZM81.1926 14.5C80.1793 14.5 79.2993 14.2934 78.5526 13.88C77.806 13.4667 77.226 12.88 76.8126 12.12C76.3993 11.3467 76.1926 10.44 76.1926 9.40005C76.1926 8.36005 76.3993 7.46005 76.8126 6.70005C77.226 5.94005 77.806 5.35338 78.5526 4.94005C79.2993 4.52672 80.1793 4.32005 81.1926 4.32005C82.206 4.32005 83.086 4.52672 83.8326 4.94005C84.5793 5.35338 85.1593 5.94005 85.5726 6.70005C85.986 7.46005 86.1926 8.36005 86.1926 9.40005C86.1926 10.44 85.986 11.3467 85.5726 12.12C85.1593 12.88 84.5793 13.4667 83.8326 13.88C83.086 14.2934 82.206 14.5 81.1926 14.5ZM81.1926 12.6C81.9393 12.6 82.5393 12.3334 82.9926 11.8C83.446 11.2534 83.6726 10.4534 83.6726 9.40005C83.6726 8.33338 83.446 7.54005 82.9926 7.02005C82.5393 6.48672 81.9393 6.22005 81.1926 6.22005C80.446 6.22005 79.846 6.48672 79.3926 7.02005C78.9393 7.54005 78.7126 8.33338 78.7126 9.40005C78.7126 10.4534 78.9393 11.2534 79.3926 11.8C79.846 12.3334 80.446 12.6 81.1926 12.6ZM91.7961 14.5C90.9827 14.5 90.3094 14.3534 89.7761 14.06C89.2427 13.7534 88.8427 13.3 88.5761 12.7C88.3227 12.1 88.1961 11.3534 88.1961 10.46V4.52005H90.6961V10.5C90.6961 10.9534 90.7561 11.3334 90.8761 11.64C91.0094 11.9467 91.2027 12.1734 91.4561 12.32C91.7227 12.4667 92.0561 12.54 92.4561 12.54C92.9094 12.54 93.3027 12.44 93.6361 12.24C93.9827 12.0267 94.2494 11.7334 94.4361 11.36C94.6361 10.9734 94.7361 10.5267 94.7361 10.02V4.52005H97.2361V14.3H94.7961V12.26H95.0761C94.7961 12.98 94.3694 13.5334 93.7961 13.92C93.2361 14.3067 92.5694 14.5 91.7961 14.5ZM99.8381 14.3V4.52005H102.278V6.88005H102.078C102.265 6.08005 102.631 5.47338 103.178 5.06005C103.725 4.63338 104.451 4.38672 105.358 4.32005L106.118 4.26005L106.278 6.38005L104.838 6.52005C104.025 6.60005 103.411 6.85338 102.998 7.28005C102.585 7.69338 102.378 8.28005 102.378 9.04005V14.3H99.8381ZM113.061 17.9V4.52005H115.501V6.58005H115.301C115.501 5.90005 115.907 5.35338 116.521 4.94005C117.147 4.52672 117.874 4.32005 118.701 4.32005C119.554 4.32005 120.301 4.52672 120.941 4.94005C121.594 5.35338 122.101 5.94005 122.461 6.70005C122.821 7.44672 123.001 8.34672 123.001 9.40005C123.001 10.44 122.821 11.3467 122.461 12.12C122.101 12.88 121.601 13.4667 120.961 13.88C120.321 14.2934 119.567 14.5 118.701 14.5C117.887 14.5 117.174 14.3 116.561 13.9C115.947 13.4867 115.534 12.9534 115.321 12.3H115.561V17.9H113.061ZM118.001 12.6C118.747 12.6 119.347 12.3334 119.801 11.8C120.254 11.2534 120.481 10.4534 120.481 9.40005C120.481 8.33338 120.254 7.54005 119.801 7.02005C119.347 6.48672 118.747 6.22005 118.001 6.22005C117.254 6.22005 116.654 6.48672 116.201 7.02005C115.747 7.54005 115.521 8.33338 115.521 9.40005C115.521 10.4534 115.747 11.2534 116.201 11.8C116.654 12.3334 117.254 12.6 118.001 12.6ZM128.273 14.5C127.566 14.5 126.933 14.3667 126.373 14.1C125.826 13.82 125.393 13.4467 125.073 12.98C124.766 12.5134 124.613 11.9867 124.613 11.4C124.613 10.68 124.8 10.1134 125.173 9.70005C125.546 9.27338 126.153 8.96672 126.993 8.78005C127.833 8.59338 128.96 8.50005 130.373 8.50005H131.373V9.94005H130.393C129.766 9.94005 129.24 9.96672 128.813 10.02C128.386 10.06 128.04 10.1334 127.773 10.24C127.52 10.3334 127.333 10.4667 127.213 10.64C127.106 10.8134 127.053 11.0267 127.053 11.28C127.053 11.72 127.206 12.08 127.513 12.36C127.82 12.64 128.246 12.78 128.793 12.78C129.233 12.78 129.62 12.68 129.953 12.48C130.3 12.2667 130.573 11.98 130.773 11.62C130.973 11.26 131.073 10.8467 131.073 10.38V8.08005C131.073 7.41338 130.926 6.93338 130.633 6.64005C130.34 6.34671 129.846 6.20005 129.153 6.20005C128.606 6.20005 128.046 6.28671 127.473 6.46005C126.9 6.62005 126.32 6.87338 125.733 7.22005L125.013 5.52005C125.36 5.28005 125.766 5.07338 126.233 4.90005C126.713 4.71338 127.213 4.57338 127.733 4.48005C128.266 4.37338 128.766 4.32005 129.233 4.32005C130.193 4.32005 130.98 4.46672 131.593 4.76005C132.22 5.05338 132.686 5.50005 132.993 6.10005C133.3 6.68671 133.453 7.44672 133.453 8.38005V14.3H131.113V12.22H131.273C131.18 12.6867 130.993 13.0934 130.713 13.44C130.446 13.7734 130.106 14.0334 129.693 14.22C129.28 14.4067 128.806 14.5 128.273 14.5ZM139.57 14.5C139.024 14.5 138.49 14.4534 137.97 14.36C137.464 14.2667 136.997 14.14 136.57 13.98C136.144 13.8067 135.77 13.5934 135.45 13.34L136.09 11.7C136.424 11.9134 136.784 12.1 137.17 12.26C137.557 12.42 137.957 12.54 138.37 12.62C138.784 12.7 139.19 12.74 139.59 12.74C140.23 12.74 140.704 12.6334 141.01 12.42C141.33 12.1934 141.49 11.9 141.49 11.54C141.49 11.2334 141.384 11 141.17 10.84C140.97 10.6667 140.664 10.54 140.25 10.46L138.25 10.08C137.424 9.92005 136.79 9.62005 136.35 9.18005C135.924 8.72672 135.71 8.14672 135.71 7.44005C135.71 6.80005 135.884 6.24671 136.23 5.78005C136.59 5.31338 137.084 4.95338 137.71 4.70005C138.337 4.44672 139.057 4.32005 139.87 4.32005C140.337 4.32005 140.79 4.36672 141.23 4.46005C141.67 4.54005 142.084 4.66671 142.47 4.84005C142.87 5.00005 143.217 5.21338 143.51 5.48005L142.83 7.12005C142.577 6.90671 142.284 6.72672 141.95 6.58005C141.617 6.42005 141.27 6.30005 140.91 6.22005C140.564 6.12672 140.224 6.08005 139.89 6.08005C139.237 6.08005 138.75 6.19338 138.43 6.42005C138.124 6.64672 137.97 6.94672 137.97 7.32005C137.97 7.60005 138.064 7.83338 138.25 8.02005C138.437 8.20672 138.724 8.33338 139.11 8.40005L141.11 8.78005C141.977 8.94005 142.63 9.23338 143.07 9.66005C143.524 10.0867 143.75 10.66 143.75 11.38C143.75 12.0334 143.577 12.5934 143.23 13.06C142.884 13.5267 142.397 13.8867 141.77 14.14C141.144 14.38 140.41 14.5 139.57 14.5ZM149.336 14.5C148.789 14.5 148.256 14.4534 147.736 14.36C147.229 14.2667 146.763 14.14 146.336 13.98C145.909 13.8067 145.536 13.5934 145.216 13.34L145.856 11.7C146.189 11.9134 146.549 12.1 146.936 12.26C147.323 12.42 147.723 12.54 148.136 12.62C148.549 12.7 148.956 12.74 149.356 12.74C149.996 12.74 150.469 12.6334 150.776 12.42C151.096 12.1934 151.256 11.9 151.256 11.54C151.256 11.2334 151.149 11 150.936 10.84C150.736 10.6667 150.429 10.54 150.016 10.46L148.016 10.08C147.189 9.92005 146.556 9.62005 146.116 9.18005C145.689 8.72672 145.476 8.14672 145.476 7.44005C145.476 6.80005 145.649 6.24671 145.996 5.78005C146.356 5.31338 146.849 4.95338 147.476 4.70005C148.103 4.44672 148.823 4.32005 149.636 4.32005C150.103 4.32005 150.556 4.36672 150.996 4.46005C151.436 4.54005 151.849 4.66671 152.236 4.84005C152.636 5.00005 152.983 5.21338 153.276 5.48005L152.596 7.12005C152.343 6.90671 152.049 6.72672 151.716 6.58005C151.383 6.42005 151.036 6.30005 150.676 6.22005C150.329 6.12672 149.989 6.08005 149.656 6.08005C149.003 6.08005 148.516 6.19338 148.196 6.42005C147.889 6.64672 147.736 6.94672 147.736 7.32005C147.736 7.60005 147.829 7.83338 148.016 8.02005C148.203 8.20672 148.489 8.33338 148.876 8.40005L150.876 8.78005C151.743 8.94005 152.396 9.23338 152.836 9.66005C153.289 10.0867 153.516 10.66 153.516 11.38C153.516 12.0334 153.343 12.5934 152.996 13.06C152.649 13.5267 152.163 13.8867 151.536 14.14C150.909 14.38 150.176 14.5 149.336 14.5ZM158.026 14.3L154.166 4.52005H156.726L159.446 12.02H158.986L161.746 4.52005H163.506L166.226 12.02H165.806L168.526 4.52005H170.946L167.106 14.3H164.926L161.966 6.48005H163.106L160.206 14.3H158.026ZM176.642 14.5C175.629 14.5 174.749 14.2934 174.002 13.88C173.255 13.4667 172.675 12.88 172.262 12.12C171.849 11.3467 171.642 10.44 171.642 9.40005C171.642 8.36005 171.849 7.46005 172.262 6.70005C172.675 5.94005 173.255 5.35338 174.002 4.94005C174.749 4.52672 175.629 4.32005 176.642 4.32005C177.655 4.32005 178.535 4.52672 179.282 4.94005C180.029 5.35338 180.609 5.94005 181.022 6.70005C181.435 7.46005 181.642 8.36005 181.642 9.40005C181.642 10.44 181.435 11.3467 181.022 12.12C180.609 12.88 180.029 13.4667 179.282 13.88C178.535 14.2934 177.655 14.5 176.642 14.5ZM176.642 12.6C177.389 12.6 177.989 12.3334 178.442 11.8C178.895 11.2534 179.122 10.4534 179.122 9.40005C179.122 8.33338 178.895 7.54005 178.442 7.02005C177.989 6.48672 177.389 6.22005 176.642 6.22005C175.895 6.22005 175.295 6.48672 174.842 7.02005C174.389 7.54005 174.162 8.33338 174.162 9.40005C174.162 10.4534 174.389 11.2534 174.842 11.8C175.295 12.3334 175.895 12.6 176.642 12.6ZM183.705 14.3V4.52005H186.145V6.88005H185.945C186.132 6.08005 186.499 5.47338 187.045 5.06005C187.592 4.63338 188.319 4.38672 189.225 4.32005L189.985 4.26005L190.145 6.38005L188.705 6.52005C187.892 6.60005 187.279 6.85338 186.865 7.28005C186.452 7.69338 186.245 8.28005 186.245 9.04005V14.3H183.705ZM195.141 14.5C194.288 14.5 193.534 14.2934 192.881 13.88C192.241 13.4667 191.741 12.88 191.381 12.12C191.021 11.3467 190.841 10.44 190.841 9.40005C190.841 8.34672 191.021 7.44672 191.381 6.70005C191.741 5.94005 192.241 5.35338 192.881 4.94005C193.534 4.52672 194.288 4.32005 195.141 4.32005C195.954 4.32005 196.661 4.52005 197.261 4.92005C197.874 5.32005 198.288 5.84672 198.501 6.50005H198.281V0.200048H200.781V14.3H198.341V12.22H198.521C198.321 12.9134 197.914 13.4667 197.301 13.88C196.688 14.2934 195.968 14.5 195.141 14.5ZM195.841 12.6C196.588 12.6 197.188 12.3334 197.641 11.8C198.094 11.2534 198.321 10.4534 198.321 9.40005C198.321 8.33338 198.094 7.54005 197.641 7.02005C197.188 6.48672 196.588 6.22005 195.841 6.22005C195.094 6.22005 194.494 6.48672 194.041 7.02005C193.588 7.54005 193.361 8.33338 193.361 9.40005C193.361 10.4534 193.588 11.2534 194.041 11.8C194.494 12.3334 195.094 12.6 195.841 12.6ZM205.733 10.12V9.32005C205.733 8.90672 205.78 8.51338 205.873 8.14005C205.98 7.76671 206.147 7.39338 206.373 7.02005C206.6 6.64672 206.9 6.25338 207.273 5.84005C207.553 5.52005 207.773 5.24005 207.933 5.00005C208.107 4.74671 208.227 4.50671 208.293 4.28005C208.373 4.05338 208.413 3.82005 208.413 3.58005C208.413 3.28672 208.34 3.03338 208.193 2.82005C208.047 2.60672 207.833 2.44671 207.553 2.34005C207.287 2.22005 206.96 2.16005 206.573 2.16005C205.907 2.16005 205.273 2.28005 204.673 2.52005C204.073 2.76005 203.5 3.12005 202.953 3.60005L202.113 1.68005C202.487 1.33338 202.92 1.04005 203.413 0.800049C203.92 0.546715 204.453 0.353382 205.013 0.220048C205.587 0.0733813 206.16 4.81606e-05 206.733 4.81606e-05C207.573 4.81606e-05 208.307 0.140048 208.933 0.420049C209.573 0.700048 210.067 1.08671 210.413 1.58005C210.773 2.07338 210.953 2.65338 210.953 3.32005C210.953 3.73338 210.893 4.12672 210.773 4.50005C210.653 4.86005 210.46 5.22671 210.193 5.60005C209.927 5.96005 209.56 6.35338 209.093 6.78005C208.68 7.15338 208.347 7.50005 208.093 7.82005C207.853 8.14005 207.673 8.44005 207.553 8.72005C207.447 9.00005 207.373 9.28005 207.333 9.56005L207.253 10.12H205.733ZM205.093 14.3V11.52H207.893V14.3H205.093Z" fill="#E8DFD4"/>
</svg>
